# Blender 4.4.3
# www.blender.org
mtllib beaker_adjusted.mtl
o Cylinder
v -0.000000 -0.000000 -0.070000
v -0.000000 0.000008 -0.068267
v -0.000000 -0.044000 -0.070000
v -0.000000 -0.044000 0.070000
v -0.008584 -0.043155 -0.070000
v -0.008584 -0.043155 0.070000
v -0.016838 -0.040651 -0.070000
v -0.016838 -0.040651 0.070000
v -0.024445 -0.036585 -0.070000
v -0.024445 -0.036585 0.070000
v -0.031113 -0.031113 -0.070000
v -0.031113 -0.031113 0.070000
v -0.036585 -0.024445 -0.070000
v -0.036585 -0.024445 0.070000
v -0.040651 -0.016838 -0.070000
v -0.040651 -0.016838 0.070000
v -0.043155 -0.008584 -0.070000
v -0.043155 -0.008584 0.070000
v -0.044000 -0.000000 -0.070000
v -0.044000 0.000000 0.070000
v -0.043155 0.008584 -0.070000
v -0.043155 0.008584 0.070000
v -0.040651 0.016838 -0.070000
v -0.040651 0.016838 0.070000
v -0.036585 0.024445 -0.070000
v -0.036585 0.024445 0.070000
v -0.031113 0.031113 -0.070000
v -0.031113 0.031113 0.070000
v -0.024445 0.036585 -0.070000
v -0.024445 0.036585 0.070000
v -0.016838 0.040651 -0.070000
v -0.016838 0.040651 0.070000
v -0.008584 0.043155 -0.070000
v -0.008584 0.053563 0.070000
v 0.000000 0.044000 -0.070000
v 0.000000 0.060020 0.070000
v 0.008584 0.043155 -0.070000
v 0.008584 0.053563 0.070000
v 0.016838 0.040651 -0.070000
v 0.016838 0.040651 0.070000
v 0.024445 0.036585 -0.070000
v 0.024445 0.036585 0.070000
v 0.031113 0.031113 -0.070000
v 0.031113 0.031113 0.070000
v 0.036585 0.024445 -0.070000
v 0.036585 0.024445 0.070000
v 0.040651 0.016838 -0.070000
v 0.040651 0.016838 0.070000
v 0.043155 0.008584 -0.070000
v 0.043155 0.008584 0.070000
v 0.044000 -0.000000 -0.070000
v 0.044000 -0.000000 0.070000
v 0.043155 -0.008584 -0.070000
v 0.043155 -0.008584 0.070000
v 0.040651 -0.016838 -0.070000
v 0.040651 -0.016838 0.070000
v 0.036585 -0.024445 -0.070000
v 0.036585 -0.024445 0.070000
v 0.031113 -0.031113 -0.070000
v 0.031113 -0.031113 0.070000
v 0.024445 -0.036585 -0.070000
v 0.024445 -0.036585 0.070000
v 0.016838 -0.040651 -0.070000
v 0.016838 -0.040651 0.070000
v 0.008584 -0.043155 -0.070000
v 0.008584 -0.043155 0.070000
v -0.000000 -0.044000 0.047559
v -0.008584 -0.043155 0.047559
v -0.016838 -0.040651 0.047559
v -0.024445 -0.036585 0.047559
v -0.031113 -0.031113 0.047559
v -0.036585 -0.024445 0.047559
v -0.040651 -0.016838 0.047559
v -0.043155 -0.008584 0.047559
v -0.044000 0.000000 0.047559
v -0.043155 0.008584 0.047559
v -0.040651 0.016838 0.047559
v -0.036585 0.024445 0.047559
v -0.031113 0.031113 0.047559
v -0.024445 0.036585 0.047559
v -0.016838 0.040651 0.047559
v -0.008584 0.043155 0.047559
v 0.000000 0.044000 0.047559
v 0.008584 0.043155 0.047559
v 0.016838 0.040651 0.047559
v 0.024445 0.036585 0.047559
v 0.031113 0.031113 0.047559
v 0.036585 0.024445 0.047559
v 0.040651 0.016838 0.047559
v 0.043155 0.008584 0.047559
v 0.044000 -0.000000 0.047559
v 0.043155 -0.008584 0.047559
v 0.040651 -0.016838 0.047559
v 0.036585 -0.024445 0.047559
v 0.031113 -0.031113 0.047559
v 0.024445 -0.036585 0.047559
v 0.016838 -0.040651 0.047559
v 0.008584 -0.043155 0.047559
v -0.000000 -0.043095 -0.068267
v -0.000000 -0.043095 0.068878
v -0.008409 -0.042267 -0.068267
v -0.008409 -0.042267 0.068878
v -0.016495 -0.039814 -0.068267
v -0.016495 -0.039814 0.068878
v -0.023947 -0.035831 -0.068267
v -0.023947 -0.035831 0.068878
v -0.030478 -0.030470 -0.068267
v -0.030478 -0.030470 0.068878
v -0.035839 -0.023939 -0.068267
v -0.035839 -0.023939 0.068878
v -0.039822 -0.016487 -0.068267
v -0.039822 -0.016487 0.068878
v -0.042274 -0.008401 -0.068267
v -0.042274 -0.008401 0.068878
v -0.043103 0.000008 -0.068267
v -0.043103 0.000008 0.068878
v -0.042274 0.008417 -0.068267
v -0.042274 0.008417 0.068878
v -0.039822 0.016502 -0.068267
v -0.039822 0.016502 0.068878
v -0.035839 0.023954 -0.068267
v -0.035839 0.023954 0.068878
v -0.030478 0.030486 -0.068267
v -0.030478 0.030486 0.068878
v -0.023947 0.035846 -0.068267
v -0.023947 0.035846 0.068878
v -0.016495 0.039829 -0.068267
v -0.016495 0.039829 0.068878
v -0.008409 0.042282 -0.068267
v -0.008409 0.052478 0.068878
v 0.000000 0.043110 -0.068267
v 0.000000 0.058804 0.068878
v 0.008409 0.042282 -0.068267
v 0.008409 0.052478 0.068878
v 0.016495 0.039829 -0.068267
v 0.016495 0.039829 0.068878
v 0.023947 0.035846 -0.068267
v 0.023947 0.035846 0.068878
v 0.030478 0.030486 -0.068267
v 0.030478 0.030486 0.068878
v 0.035839 0.023954 -0.068267
v 0.035839 0.023954 0.068878
v 0.039822 0.016502 -0.068267
v 0.039822 0.016502 0.068878
v 0.042274 0.008417 -0.068267
v 0.042274 0.008417 0.068878
v 0.043103 0.000008 -0.068267
v 0.043103 0.000008 0.068878
v 0.042274 -0.008401 -0.068267
v 0.042274 -0.008401 0.068878
v 0.039822 -0.016487 -0.068267
v 0.039822 -0.016487 0.068878
v 0.035839 -0.023939 -0.068267
v 0.035839 -0.023939 0.068878
v 0.030478 -0.030470 -0.068267
v 0.030478 -0.030470 0.068878
v 0.023947 -0.035831 -0.068267
v 0.023947 -0.035831 0.068878
v 0.016495 -0.039814 -0.068267
v 0.016495 -0.039814 0.068878
v 0.008409 -0.042267 -0.068267
v 0.008409 -0.042267 0.068878
v -0.000000 -0.043095 0.046894
v -0.008409 -0.042267 0.046894
v -0.016495 -0.039814 0.046894
v -0.023947 -0.035831 0.046894
v -0.030478 -0.030470 0.046894
v -0.035839 -0.023939 0.046894
v -0.039822 -0.016487 0.046894
v -0.042274 -0.008401 0.046894
v -0.043103 0.000008 0.046894
v -0.042274 0.008417 0.046894
v -0.039822 0.016502 0.046894
v -0.035839 0.023954 0.046894
v -0.030478 0.030486 0.046894
v -0.023947 0.035846 0.046894
v -0.016495 0.039829 0.046894
v -0.008409 0.042282 0.046894
v 0.000000 0.043110 0.046894
v 0.008409 0.042282 0.046894
v 0.016495 0.039829 0.046894
v 0.023947 0.035846 0.046894
v 0.030478 0.030486 0.046894
v 0.035839 0.023954 0.046894
v 0.039822 0.016502 0.046894
v 0.042274 0.008417 0.046894
v 0.043103 0.000008 0.046894
v 0.042274 -0.008401 0.046894
v 0.039822 -0.016487 0.046894
v 0.035839 -0.023939 0.046894
v 0.030478 -0.030470 0.046894
v 0.023947 -0.035831 0.046894
v 0.016495 -0.039814 0.046894
v 0.008409 -0.042267 0.046894
v -0.000000 -0.000000 -0.070700
v -0.000000 0.000008 -0.067567
v -0.000000 -0.044320 -0.070480
v -0.000000 -0.044212 0.070613
v -0.008646 -0.043469 -0.070480
v -0.008625 -0.043363 0.070613
v -0.016961 -0.040947 -0.070480
v -0.016919 -0.040847 0.070613
v -0.024623 -0.036851 -0.070480
v -0.024563 -0.036761 0.070613
v -0.031339 -0.031339 -0.070480
v -0.031263 -0.031262 0.070614
v -0.036851 -0.024623 -0.070480
v -0.036761 -0.024563 0.070614
v -0.040947 -0.016961 -0.070480
v -0.040846 -0.016919 0.070614
v -0.043469 -0.008646 -0.070480
v -0.043362 -0.008625 0.070614
v -0.044320 -0.000000 -0.070480
v -0.044211 0.000000 0.070614
v -0.043469 0.008646 -0.070480
v -0.043362 0.008625 0.070614
v -0.040947 0.016961 -0.070480
v -0.040846 0.016919 0.070614
v -0.036851 0.024623 -0.070480
v -0.036760 0.024562 0.070614
v -0.031339 0.031339 -0.070480
v -0.031262 0.031262 0.070614
v -0.024623 0.036851 -0.070480
v -0.024562 0.036760 0.070615
v -0.016961 0.040947 -0.070480
v -0.016865 0.040817 0.070647
v -0.008646 0.043469 -0.070480
v -0.008602 0.053898 0.070453
v 0.000000 0.044320 -0.070480
v 0.000000 0.060432 0.070247
v 0.008646 0.043469 -0.070480
v 0.008602 0.053898 0.070453
v 0.016961 0.040947 -0.070480
v 0.016865 0.040817 0.070647
v 0.024623 0.036851 -0.070480
v 0.024562 0.036760 0.070615
v 0.031339 0.031339 -0.070480
v 0.031262 0.031262 0.070614
v 0.036851 0.024623 -0.070480
v 0.036760 0.024562 0.070614
v 0.040947 0.016961 -0.070480
v 0.040846 0.016919 0.070614
v 0.043469 0.008646 -0.070480
v 0.043362 0.008625 0.070614
v 0.044320 -0.000000 -0.070480
v 0.044211 0.000000 0.070614
v 0.043469 -0.008647 -0.070480
v 0.043362 -0.008625 0.070614
v 0.040947 -0.016961 -0.070480
v 0.040846 -0.016919 0.070614
v 0.036851 -0.024623 -0.070480
v 0.036761 -0.024563 0.070614
v 0.031339 -0.031339 -0.070480
v 0.031263 -0.031262 0.070614
v 0.024623 -0.036851 -0.070480
v 0.024563 -0.036761 0.070613
v 0.016961 -0.040947 -0.070480
v 0.016919 -0.040847 0.070613
v 0.008646 -0.043469 -0.070480
v 0.008625 -0.043363 0.070613
v -0.000000 -0.044440 0.047559
v -0.008670 -0.043586 0.047559
v -0.017006 -0.041057 0.047559
v -0.024690 -0.036950 0.047559
v -0.031424 -0.031424 0.047559
v -0.036951 -0.024690 0.047559
v -0.041057 -0.017006 0.047559
v -0.043586 -0.008670 0.047559
v -0.044440 0.000000 0.047559
v -0.043586 0.008670 0.047559
v -0.041057 0.017006 0.047559
v -0.036951 0.024690 0.047559
v -0.031424 0.031424 0.047559
v -0.024690 0.036951 0.047559
v -0.017050 0.041035 0.047512
v -0.008747 0.043549 0.047390
v 0.000000 0.044409 0.047301
v 0.008747 0.043549 0.047390
v 0.017050 0.041035 0.047512
v 0.024690 0.036950 0.047559
v 0.031424 0.031424 0.047559
v 0.036951 0.024690 0.047559
v 0.041057 0.017006 0.047559
v 0.043586 0.008670 0.047559
v 0.044440 -0.000000 0.047559
v 0.043586 -0.008670 0.047559
v 0.041057 -0.017006 0.047559
v 0.036950 -0.024690 0.047559
v 0.031424 -0.031424 0.047559
v 0.024689 -0.036951 0.047559
v 0.017006 -0.041057 0.047559
v 0.008670 -0.043586 0.047559
v -0.000000 -0.042775 -0.067787
v -0.000000 -0.042702 0.069193
v -0.008346 -0.041953 -0.067787
v -0.008332 -0.041881 0.069193
v -0.016372 -0.039518 -0.067787
v -0.016344 -0.039451 0.069193
v -0.023769 -0.035565 -0.067787
v -0.023728 -0.035504 0.069192
v -0.030252 -0.030244 -0.067787
v -0.030200 -0.030193 0.069192
v -0.035572 -0.023761 -0.067787
v -0.035512 -0.023720 0.069192
v -0.039526 -0.016364 -0.067787
v -0.039458 -0.016337 0.069192
v -0.041960 -0.008339 -0.067787
v -0.041889 -0.008325 0.069192
v -0.042782 0.000008 -0.067787
v -0.042709 0.000008 0.069191
v -0.041960 0.008354 -0.067787
v -0.041889 0.008340 0.069191
v -0.039526 0.016380 -0.067787
v -0.039458 0.016352 0.069191
v -0.035572 0.023776 -0.067787
v -0.035511 0.023736 0.069191
v -0.030252 0.030259 -0.067787
v -0.030200 0.030208 0.069190
v -0.023769 0.035580 -0.067787
v -0.023728 0.035519 0.069190
v -0.016372 0.039534 -0.067787
v -0.016258 0.039519 0.069201
v -0.008346 0.041968 -0.067787
v -0.008195 0.052230 0.069344
v 0.000000 0.042790 -0.067787
v 0.000000 0.058546 0.069445
v 0.008346 0.041968 -0.067787
v 0.008195 0.052230 0.069344
v 0.016372 0.039534 -0.067787
v 0.016258 0.039519 0.069201
v 0.023769 0.035580 -0.067787
v 0.023728 0.035519 0.069190
v 0.030252 0.030259 -0.067787
v 0.030200 0.030208 0.069190
v 0.035572 0.023776 -0.067787
v 0.035511 0.023736 0.069191
v 0.039526 0.016380 -0.067787
v 0.039458 0.016352 0.069191
v 0.041960 0.008354 -0.067787
v 0.041889 0.008340 0.069191
v 0.042782 0.000008 -0.067787
v 0.042709 0.000008 0.069191
v 0.041960 -0.008339 -0.067787
v 0.041889 -0.008325 0.069192
v 0.039526 -0.016364 -0.067787
v 0.039458 -0.016337 0.069192
v 0.035572 -0.023761 -0.067787
v 0.035512 -0.023721 0.069192
v 0.030252 -0.030244 -0.067787
v 0.030200 -0.030193 0.069192
v 0.023769 -0.035565 -0.067787
v 0.023728 -0.035504 0.069192
v 0.016372 -0.039518 -0.067787
v 0.016344 -0.039451 0.069193
v 0.008346 -0.041953 -0.067787
v 0.008332 -0.041881 0.069193
v -0.000000 -0.042655 0.046894
v -0.008323 -0.041835 0.046894
v -0.016326 -0.039407 0.046894
v -0.023702 -0.035465 0.046894
v -0.030167 -0.030159 0.046894
v -0.035473 -0.023694 0.046894
v -0.039415 -0.016319 0.046894
v -0.041843 -0.008315 0.046894
v -0.042663 0.000008 0.046894
v -0.041843 0.008331 0.046894
v -0.039415 0.016334 0.046894
v -0.035473 0.023710 0.046894
v -0.030167 0.030175 0.046894
v -0.023702 0.035480 0.046894
v -0.016282 0.039445 0.046941
v -0.008246 0.041888 0.047063
v 0.000000 0.042701 0.047152
v 0.008246 0.041888 0.047063
v 0.016282 0.039445 0.046941
v 0.023702 0.035480 0.046894
v 0.030167 0.030175 0.046894
v 0.035473 0.023710 0.046894
v 0.039415 0.016334 0.046894
v 0.041843 0.008331 0.046894
v 0.042663 0.000008 0.046894
v 0.041843 -0.008315 0.046894
v 0.039415 -0.016319 0.046894
v 0.035473 -0.023694 0.046894
v 0.030167 -0.030159 0.046894
v 0.023702 -0.035465 0.046894
v 0.016326 -0.039407 0.046894
v 0.008323 -0.041835 0.046894
vn -0.0000 -0.0000 1.0000
vn -0.0000 -0.0000 -1.0000
vn -0.0000 1.0000 -0.0000
vn 0.1951 0.9808 -0.0000
vn -0.6729 0.7206 -0.1671
vn 0.3827 0.9239 -0.0000
vn 0.5556 0.8315 -0.0000
vn -0.5556 0.8315 -0.0000
vn -0.4714 0.8819 -0.0000
vn -0.4128 0.9108 -0.0000
vn 0.7071 0.7071 -0.0000
vn 0.8315 0.5556 -0.0000
vn -0.7071 0.7071 -0.0000
vn 0.9239 0.3827 -0.0000
vn 0.9808 0.1951 -0.0000
vn -0.8315 0.5556 -0.0000
vn 1.0000 -0.0000 -0.0000
vn 0.9808 -0.1951 -0.0000
vn -0.9239 0.3827 -0.0000
vn 0.9239 -0.3827 -0.0000
vn 0.8315 -0.5556 -0.0000
vn -0.9808 0.1951 -0.0000
vn 0.7071 -0.7071 -0.0000
vn 0.5556 -0.8315 -0.0000
vn -1.0000 -0.0000 -0.0000
vn 0.4128 -0.9108 -0.0000
vn 0.4714 -0.8819 -0.0000
vn 0.6729 -0.7206 0.1671
vn -0.9808 -0.1951 -0.0000
vn 0.3442 -0.8091 0.4764
vn -0.3442 -0.8091 0.4764
vn -0.9239 -0.3827 -0.0000
vn -0.6729 -0.7206 0.1671
vn -0.4128 -0.9108 -0.0000
vn -0.5556 -0.8315 -0.0000
vn -0.4714 -0.8819 -0.0000
vn -0.8315 -0.5556 -0.0000
vn -0.7071 -0.7071 -0.0000
vn -0.3827 -0.9239 -0.0000
vn -0.1951 -0.9808 -0.0000
vn -0.0000 -1.0000 -0.0000
vn -0.3827 0.9239 -0.0000
vn -0.1951 0.9808 -0.0000
vn -0.3442 0.8091 -0.4764
vn 0.1951 -0.9808 -0.0000
vn 0.3827 -0.9239 -0.0000
vn 0.3442 0.8091 -0.4764
vn 0.6729 0.7206 -0.1671
vn 0.4128 0.9108 -0.0000
vn 0.4714 0.8819 -0.0000
vn 0.5508 -0.5511 -0.6268
vn 0.4326 -0.6477 -0.6272
vn 0.4329 -0.6475 -0.6272
vn 0.5511 -0.5508 -0.6268
vn 0.5538 0.5534 -0.6221
vn 0.6508 0.4345 -0.6226
vn 0.6505 0.4350 -0.6226
vn 0.5534 0.5538 -0.6221
vn -0.5538 0.5534 -0.6221
vn -0.4353 0.6511 -0.6217
vn -0.4350 0.6513 -0.6217
vn -0.5534 0.5538 -0.6221
vn -0.5508 -0.5511 -0.6268
vn -0.6481 -0.4333 -0.6263
vn -0.6484 -0.4329 -0.6263
vn -0.5511 -0.5508 -0.6268
vn 0.7666 0.1522 -0.6238
vn 0.7810 -0.0003 -0.6245
vn 0.7810 0.0004 -0.6245
vn 0.7665 0.1528 -0.6238
vn -0.4544 0.6041 -0.6547
vn -0.7655 -0.1526 -0.6251
vn -0.7810 -0.0003 -0.6245
vn -0.7810 0.0004 -0.6245
vn -0.7656 -0.1519 -0.6251
vn 0.7206 -0.2988 -0.6257
vn 0.6481 -0.4333 -0.6263
vn 0.6484 -0.4329 -0.6263
vn 0.7208 -0.2982 -0.6257
vn 0.3700 0.6922 -0.6197
vn 0.4353 0.6511 -0.6217
vn 0.4350 0.6513 -0.6217
vn -0.7226 0.2990 -0.6232
vn -0.6508 0.4345 -0.6226
vn -0.6505 0.4350 -0.6226
vn -0.7224 0.2996 -0.6232
vn -0.2979 -0.7194 -0.6275
vn -0.4326 -0.6477 -0.6272
vn -0.4329 -0.6475 -0.6272
vn -0.2981 -0.7193 -0.6275
vn 0.2979 -0.7194 -0.6275
vn 0.2981 -0.7193 -0.6275
vn 0.7226 0.2990 -0.6232
vn 0.7224 0.2996 -0.6232
vn -0.3700 0.6922 -0.6197
vn -0.7206 -0.2988 -0.6257
vn -0.7208 -0.2982 -0.6257
vn -0.0000 -0.7784 -0.6277
vn -0.1518 -0.7635 -0.6277
vn -0.1519 -0.7635 -0.6277
vn 0.7655 -0.1526 -0.6251
vn 0.7656 -0.1519 -0.6251
vn 0.4544 0.6041 -0.6547
vn -0.7666 0.1522 -0.6238
vn -0.7665 0.1528 -0.6238
vn 0.1518 -0.7635 -0.6277
vn 0.1519 -0.7635 -0.6277
vn -0.7058 0.4512 -0.5461
vn 0.7058 0.4512 -0.5461
vn -0.0000 -0.0050 -1.0000
vn -0.0010 -0.0049 -1.0000
vn -0.0000 0.0051 1.0000
vn -0.0010 0.0050 1.0000
vn -0.0000 -1.0000 0.0044
vn -0.0000 -1.0000 0.0099
vn -0.1951 -0.9807 0.0099
vn -0.1951 -0.9808 0.0044
vn -0.0019 -0.0046 -1.0000
vn 0.6743 -0.7193 0.1671
vn -0.3827 -0.9238 0.0099
vn -0.3827 -0.9239 0.0044
vn -0.0028 -0.0041 -1.0000
vn -0.0020 0.0048 1.0000
vn -0.5555 -0.8314 0.0099
vn -0.5556 -0.8315 0.0044
vn -0.0035 -0.0035 -1.0000
vn 0.5556 -0.8314 0.0006
vn 0.4127 -0.9108 0.0001
vn 0.4717 -0.8818 0.0022
vn 0.5557 -0.8314 0.0022
vn -0.7071 -0.7071 0.0099
vn -0.7071 -0.7071 0.0044
vn -0.0041 -0.0028 -1.0000
vn -0.0029 0.0043 1.0000
vn -0.8314 -0.5555 0.0099
vn -0.8315 -0.5556 0.0044
vn -0.0046 -0.0019 -1.0000
vn 0.7071 -0.7071 0.0005
vn 0.7071 -0.7071 0.0021
vn -0.9238 -0.3827 0.0099
vn -0.9239 -0.3827 0.0044
vn -0.0049 -0.0010 -1.0000
vn -0.0036 0.0036 1.0000
vn -0.9807 -0.1951 0.0099
vn -0.9808 -0.1951 0.0044
vn -0.0050 -0.0000 -1.0000
vn 0.8315 -0.5556 0.0005
vn 0.8315 -0.5556 0.0021
vn -1.0000 -0.0000 0.0099
vn -1.0000 -0.0000 0.0044
vn -0.0049 0.0010 -1.0000
vn -0.0043 0.0029 1.0000
vn -0.9807 0.1951 0.0099
vn -0.9808 0.1951 0.0045
vn -0.0046 0.0019 -1.0000
vn 0.9239 -0.3827 0.0005
vn 0.9239 -0.3827 0.0021
vn -0.9238 0.3827 0.0099
vn -0.9239 0.3827 0.0045
vn -0.0041 0.0028 -1.0000
vn -0.0048 0.0020 1.0000
vn -0.8314 0.5556 0.0099
vn -0.8315 0.5556 0.0045
vn -0.0035 0.0035 -1.0000
vn 0.9808 -0.1951 0.0005
vn 0.9808 -0.1951 0.0021
vn -0.7071 0.7071 0.0099
vn -0.7071 0.7071 0.0045
vn -0.0028 0.0041 -1.0000
vn -0.0050 0.0010 1.0000
vn -0.5543 0.8323 0.0105
vn -0.5550 0.8318 0.0047
vn -0.0019 0.0046 -1.0000
vn 1.0000 -0.0000 0.0005
vn 1.0000 -0.0000 0.0021
vn -0.4689 0.8832 0.0110
vn -0.4122 0.9111 0.0030
vn -0.0010 0.0049 -1.0000
vn -0.0051 -0.0000 1.0000
vn -0.6790 0.7181 -0.1526
vn -0.0000 0.0050 -1.0000
vn 0.9808 0.1951 0.0005
vn 0.9808 0.1951 0.0021
vn -0.3539 0.8119 -0.4643
vn 0.0010 0.0049 -1.0000
vn -0.0050 -0.0010 1.0000
vn 0.3539 0.8119 -0.4643
vn 0.0019 0.0046 -1.0000
vn 0.9239 0.3827 0.0005
vn 0.9239 0.3827 0.0021
vn 0.6790 0.7181 -0.1526
vn 0.0028 0.0041 -1.0000
vn -0.0048 -0.0020 1.0000
vn 0.4122 0.9111 0.0030
vn 0.4689 0.8832 0.0110
vn 0.5543 0.8323 0.0105
vn 0.5550 0.8318 0.0047
vn 0.0035 0.0035 -1.0000
vn 0.8315 0.5556 0.0005
vn 0.8315 0.5556 0.0021
vn 0.7071 0.7071 0.0099
vn 0.7071 0.7071 0.0045
vn 0.0041 0.0028 -1.0000
vn -0.0043 -0.0029 1.0000
vn 0.8314 0.5555 0.0099
vn 0.8315 0.5556 0.0045
vn 0.0046 0.0019 -1.0000
vn 0.7071 0.7071 0.0005
vn 0.7071 0.7071 0.0021
vn 0.9238 0.3827 0.0099
vn 0.9239 0.3827 0.0045
vn 0.0049 0.0010 -1.0000
vn -0.0036 -0.0036 1.0000
vn 0.9807 0.1951 0.0099
vn 0.9808 0.1951 0.0045
vn 0.0050 -0.0000 -1.0000
vn 0.5556 0.8315 0.0005
vn 0.5556 0.8315 0.0021
vn 1.0000 -0.0000 0.0099
vn 1.0000 -0.0000 0.0044
vn 0.0049 -0.0010 -1.0000
vn -0.0029 -0.0043 1.0000
vn 0.9807 -0.1951 0.0099
vn 0.9808 -0.1951 0.0044
vn 0.0046 -0.0019 -1.0000
vn 0.3827 0.9239 0.0005
vn 0.3827 0.9239 0.0021
vn 0.9238 -0.3827 0.0099
vn 0.9239 -0.3827 0.0044
vn 0.0041 -0.0028 -1.0000
vn -0.0020 -0.0048 1.0000
vn 0.8314 -0.5555 0.0099
vn 0.8315 -0.5556 0.0044
vn 0.0035 -0.0035 -1.0000
vn 0.1951 0.9808 0.0005
vn 0.1951 0.9808 0.0021
vn 0.7071 -0.7071 0.0099
vn 0.7071 -0.7071 0.0044
vn 0.0028 -0.0041 -1.0000
vn -0.0010 -0.0050 1.0000
vn 0.5555 -0.8314 0.0099
vn 0.5556 -0.8315 0.0044
vn 0.0019 -0.0046 -1.0000
vn -0.0000 1.0000 0.0005
vn -0.0000 1.0000 0.0021
vn 0.3827 -0.9238 0.0099
vn 0.3827 -0.9239 0.0044
vn 0.0010 -0.0049 -1.0000
vn -0.0000 -0.0051 1.0000
vn 0.1951 -0.9807 0.0099
vn 0.1951 -0.9808 0.0044
vn 0.3455 -0.8093 0.4751
vn 0.1951 -0.9808 -0.0010
vn -0.0000 -1.0000 -0.0010
vn 0.3827 -0.9239 -0.0010
vn 0.5556 -0.8315 -0.0010
vn 0.7071 -0.7071 -0.0010
vn 0.8315 -0.5556 -0.0010
vn 0.9239 -0.3827 -0.0010
vn 0.9808 -0.1951 -0.0010
vn 1.0000 -0.0000 -0.0010
vn 0.9808 0.1951 -0.0010
vn 0.9239 0.3827 -0.0010
vn 0.8315 0.5556 -0.0010
vn 0.7071 0.7071 -0.0010
vn 0.5556 0.8315 -0.0010
vn 0.3826 0.9239 -0.0010
vn 0.1949 0.9808 -0.0008
vn 0.1955 0.9807 -0.0008
vn -0.0000 1.0000 -0.0008
vn -0.1949 0.9808 -0.0008
vn -0.1955 0.9807 -0.0008
vn -0.3826 0.9239 -0.0010
vn -0.5556 0.8315 -0.0010
vn -0.7071 0.7071 -0.0010
vn -0.8315 0.5556 -0.0010
vn -0.9239 0.3827 -0.0010
vn -0.9808 0.1951 -0.0010
vn -1.0000 -0.0000 -0.0010
vn -0.9808 -0.1951 -0.0010
vn -0.9239 -0.3827 -0.0010
vn -0.8315 -0.5556 -0.0010
vn -0.7071 -0.7071 -0.0010
vn -0.5556 -0.8315 -0.0010
vn -0.3827 -0.9239 -0.0010
vn -0.1951 -0.9808 -0.0010
vn 0.0010 0.0050 1.0000
vn -0.3455 -0.8093 0.4751
vn 0.0020 0.0048 1.0000
vn -0.6743 -0.7193 0.1671
vn 0.0029 0.0043 1.0000
vn -0.4127 -0.9108 0.0001
vn -0.5556 -0.8314 0.0006
vn -0.5557 -0.8314 0.0022
vn -0.4717 -0.8818 0.0022
vn 0.0036 0.0036 1.0000
vn -0.7071 -0.7071 0.0005
vn -0.7071 -0.7071 0.0021
vn 0.0043 0.0029 1.0000
vn -0.8315 -0.5556 0.0005
vn -0.8315 -0.5556 0.0021
vn 0.0048 0.0020 1.0000
vn -0.9239 -0.3827 0.0005
vn -0.9239 -0.3827 0.0021
vn 0.0050 0.0010 1.0000
vn -0.9808 -0.1951 0.0005
vn -0.9808 -0.1951 0.0021
vn 0.0051 -0.0000 1.0000
vn -1.0000 -0.0000 0.0005
vn -1.0000 -0.0000 0.0021
vn 0.0050 -0.0010 1.0000
vn -0.9808 0.1951 0.0005
vn -0.9808 0.1951 0.0021
vn 0.0048 -0.0020 1.0000
vn -0.9239 0.3827 0.0005
vn -0.9239 0.3827 0.0021
vn 0.0043 -0.0029 1.0000
vn -0.8315 0.5556 0.0005
vn -0.8315 0.5556 0.0021
vn 0.0036 -0.0036 1.0000
vn -0.7071 0.7071 0.0005
vn -0.7071 0.7071 0.0021
vn 0.0029 -0.0043 1.0000
vn -0.5556 0.8315 0.0005
vn -0.5556 0.8315 0.0021
vn 0.0020 -0.0048 1.0000
vn -0.3827 0.9239 0.0005
vn -0.3827 0.9239 0.0021
vn 0.0010 -0.0050 1.0000
vn -0.1951 0.9808 0.0005
vn -0.1951 0.9808 0.0021
vn -0.1951 0.9808 -0.0010
vn -0.0000 1.0000 -0.0010
vn -0.3827 0.9239 -0.0010
vn -0.5555 -0.8315 -0.0010
vn -0.3828 -0.9238 -0.0010
vn -0.1953 -0.9807 -0.0009
vn -0.1947 -0.9809 -0.0009
vn -0.0000 -1.0000 -0.0008
vn 0.1953 -0.9807 -0.0009
vn 0.1947 -0.9809 -0.0009
vn 0.3828 -0.9238 -0.0010
vn 0.5555 -0.8315 -0.0010
vn 0.3827 0.9239 -0.0010
vn 0.1951 0.9808 -0.0010
vn -0.4849 0.4851 0.7277
vn -0.4851 0.4849 0.7277
vn -0.3810 0.5700 0.7280
vn -0.3808 0.5701 0.7280
vn -0.4876 -0.4874 0.7244
vn -0.4874 -0.4876 0.7244
vn -0.5728 -0.3830 0.7247
vn -0.5730 -0.3827 0.7247
vn 0.4876 -0.4874 0.7244
vn 0.4874 -0.4876 0.7244
vn 0.3837 -0.5789 0.7195
vn 0.3839 -0.5787 0.7195
vn 0.4849 0.4851 0.7277
vn 0.4851 0.4849 0.7277
vn 0.5707 0.3811 0.7273
vn 0.5706 0.3814 0.7273
vn -0.6750 -0.1341 0.7256
vn -0.6749 -0.1345 0.7256
vn -0.6877 -0.0002 0.7260
vn -0.6877 0.0002 0.7260
vn 0.4255 -0.4126 0.8054
vn 0.5259 -0.4010 0.7500
vn 0.3255 -0.4186 0.8478
vn 0.6740 0.1342 0.7265
vn 0.6740 0.1339 0.7265
vn 0.6877 -0.0002 0.7260
vn 0.6877 0.0002 0.7260
vn -0.6344 0.2629 0.7269
vn -0.6345 0.2626 0.7269
vn -0.5707 0.3811 0.7273
vn -0.5706 0.3814 0.7273
vn -0.3274 -0.6201 0.7129
vn -0.3837 -0.5789 0.7195
vn -0.3839 -0.5787 0.7195
vn 0.6363 -0.2634 0.7251
vn 0.6361 -0.2637 0.7251
vn 0.5728 -0.3830 0.7247
vn 0.5730 -0.3827 0.7247
vn 0.2622 0.6332 0.7282
vn 0.2624 0.6332 0.7282
vn 0.3810 0.5700 0.7280
vn 0.3808 0.5701 0.7280
vn -0.2624 0.6332 0.7282
vn -0.2622 0.6332 0.7282
vn -0.6361 -0.2637 0.7251
vn -0.6363 -0.2634 0.7251
vn 0.3274 -0.6201 0.7129
vn 0.6345 0.2626 0.7269
vn 0.6344 0.2629 0.7269
vn -0.0000 0.6852 0.7283
vn 0.1337 0.6721 0.7283
vn -0.6740 0.1339 0.7265
vn -0.6740 0.1342 0.7265
vn -0.3255 -0.4186 0.8478
vn -0.5259 -0.4010 0.7500
vn -0.4255 -0.4126 0.8054
vn 0.6749 -0.1345 0.7256
vn 0.6750 -0.1341 0.7256
vn -0.1337 0.6721 0.7283
vn 0.6116 -0.3858 0.6908
vn -0.6116 -0.3858 0.6908
vt 0.750000 0.250000
vt 0.796822 0.485388
vt 0.750000 0.490000
vt 0.796822 0.014612
vt 0.750000 0.010000
vt 1.000000 0.919853
vt 0.968750 0.919853
vt 0.968750 1.000000
vt 1.000000 1.000000
vt 0.841844 0.471731
vt 0.562500 0.919853
vt 0.562500 1.000000
vt 0.531250 1.000000
vt 0.531250 0.919853
vt 0.937500 0.919853
vt 0.937500 1.000000
vt 0.883337 0.449553
vt 0.841844 0.028269
vt 0.906250 0.919853
vt 0.906250 1.000000
vt 0.919706 0.419706
vt 0.593750 0.919853
vt 0.593750 1.000000
vt 0.875000 0.919853
vt 0.875000 1.000000
vt 0.949553 0.383337
vt 0.883337 0.050447
vt 0.843750 0.919853
vt 0.843750 1.000000
vt 0.971731 0.341844
vt 0.625000 0.919853
vt 0.625000 1.000000
vt 0.812500 0.919853
vt 0.812500 1.000000
vt 0.985388 0.296822
vt 0.919706 0.080294
vt 0.781250 0.919853
vt 0.781250 1.000000
vt 0.990000 0.250000
vt 0.656250 0.919853
vt 0.656250 1.000000
vt 0.750000 0.919853
vt 0.750000 1.000000
vt 0.985388 0.203178
vt 0.949553 0.116663
vt 0.718750 0.919853
vt 0.718750 1.000000
vt 0.971731 0.158156
vt 0.687500 0.919853
vt 0.687500 1.000000
vt 0.500000 0.919853
vt 0.500000 1.000000
vt 0.703178 0.014612
vt 0.468750 0.919853
vt 0.468750 1.000000
vt 0.658156 0.028269
vt 0.437500 0.919853
vt 0.437500 1.000000
vt 0.616663 0.050447
vt 0.406250 0.919853
vt 0.406250 1.000000
vt 0.580294 0.080294
vt 0.375000 0.919853
vt 0.375000 1.000000
vt 0.550447 0.116663
vt 0.343750 0.919853
vt 0.343750 1.000000
vt 0.528269 0.158156
vt 0.312500 0.919853
vt 0.312500 1.000000
vt 0.514611 0.203179
vt 0.281250 0.919853
vt 0.281250 1.000000
vt 0.510000 0.250000
vt 0.250000 0.919853
vt 0.250000 1.000000
vt 0.514612 0.296822
vt 0.218750 0.919853
vt 0.218750 1.000000
vt 0.528269 0.341844
vt 0.187500 0.919853
vt 0.187500 1.000000
vt 0.550447 0.383337
vt 0.156250 0.919853
vt 0.156250 1.000000
vt 0.580295 0.419706
vt 0.125000 0.919853
vt 0.125000 1.000000
vt 0.616663 0.449553
vt 0.093750 0.919853
vt 0.093750 1.000000
vt 0.658156 0.471731
vt 0.062500 0.919853
vt 0.062500 1.000000
vt 0.703179 0.485389
vt 0.031250 0.919853
vt 0.031250 1.000000
vt 0.000000 0.919853
vt 0.000000 1.000000
vt 0.031250 0.500000
vt 0.000000 0.500000
vt 0.062500 0.500000
vt 0.093750 0.500000
vt 0.125000 0.500000
vt 0.156250 0.500000
vt 0.187500 0.500000
vt 0.218750 0.500000
vt 0.250000 0.500000
vt 0.281250 0.500000
vt 0.312500 0.500000
vt 0.343750 0.500000
vt 0.375000 0.500000
vt 0.406250 0.500000
vt 0.437500 0.500000
vt 0.468750 0.500000
vt 0.500000 0.500000
vt 0.531250 0.500000
vt 0.562500 0.500000
vt 0.593750 0.500000
vt 0.625000 0.500000
vt 0.656250 0.500000
vt 0.687500 0.500000
vt 0.718750 0.500000
vt 0.750000 0.500000
vt 0.781250 0.500000
vt 0.812500 0.500000
vt 0.843750 0.500000
vt 0.875000 0.500000
vt 0.906250 0.500000
vt 0.937500 0.500000
vt 0.968750 0.500000
vt 1.000000 0.500000
s 1
f 1/1/1 5/2/1 3/3/1
f 2/1/2 129/4/2 131/5/2
f 67/6/3 68/7/4 6/8/4 4/9/3
f 1/1/1 7/10/1 5/2/1
f 177/11/5 128/12/5 130/13/5 178/14/5
f 68/7/4 69/15/6 8/16/6 6/8/4
f 1/1/1 9/17/1 7/10/1
f 2/1/2 127/18/2 129/4/2
f 69/15/6 70/19/7 10/20/7 8/16/6
f 1/1/1 11/21/1 9/17/1
f 176/22/8 126/23/8 128/12/9 177/11/10
f 70/19/7 71/24/11 12/25/11 10/20/7
f 1/1/1 13/26/1 11/21/1
f 2/1/2 125/27/2 127/18/2
f 71/24/11 72/28/12 14/29/12 12/25/11
f 1/1/1 15/30/1 13/26/1
f 175/31/13 124/32/13 126/23/8 176/22/8
f 72/28/12 73/33/14 16/34/14 14/29/12
f 1/1/1 17/35/1 15/30/1
f 2/1/2 123/36/2 125/27/2
f 73/33/14 74/37/15 18/38/15 16/34/14
f 1/1/1 19/39/1 17/35/1
f 174/40/16 122/41/16 124/32/13 175/31/13
f 74/37/15 75/42/17 20/43/17 18/38/15
f 1/1/1 21/44/1 19/39/1
f 2/1/2 121/45/2 123/36/2
f 75/42/17 76/46/18 22/47/18 20/43/17
f 1/1/1 23/48/1 21/44/1
f 173/49/19 120/50/19 122/41/16 174/40/16
f 76/46/18 77/49/20 24/50/20 22/47/18
f 1/1/1 25/45/1 23/48/1
f 2/1/2 119/48/2 121/45/2
f 77/49/20 78/40/21 26/41/21 24/50/20
f 1/1/1 27/36/1 25/45/1
f 172/46/22 118/47/22 120/50/19 173/49/19
f 78/40/21 79/31/23 28/32/23 26/41/21
f 1/1/1 29/27/1 27/36/1
f 2/1/2 117/44/2 119/48/2
f 79/31/23 80/22/24 30/23/24 28/32/23
f 1/1/1 31/18/1 29/27/1
f 171/42/25 116/43/25 118/47/22 172/46/22
f 80/22/24 81/11/26 32/12/27 30/23/24
f 1/1/1 33/4/1 31/18/1
f 2/1/2 115/39/2 117/44/2
f 81/11/28 82/14/28 34/13/28 32/12/28
f 1/1/1 35/5/1 33/4/1
f 170/37/29 114/38/29 116/43/25 171/42/25
f 82/14/30 83/51/30 36/52/30 34/13/30
f 1/1/1 37/53/1 35/5/1
f 2/1/2 113/35/2 115/39/2
f 83/51/31 84/54/31 38/55/31 36/52/31
f 1/1/1 39/56/1 37/53/1
f 169/33/32 112/34/32 114/38/29 170/37/29
f 84/54/33 85/57/33 40/58/33 38/55/33
f 1/1/1 41/59/1 39/56/1
f 2/1/2 111/30/2 113/35/2
f 85/57/34 86/60/35 42/61/35 40/58/36
f 1/1/1 43/62/1 41/59/1
f 168/28/37 110/29/37 112/34/32 169/33/32
f 86/60/35 87/63/38 44/64/38 42/61/35
f 1/1/1 45/65/1 43/62/1
f 2/1/2 109/26/2 111/30/2
f 87/63/38 88/66/37 46/67/37 44/64/38
f 1/1/1 47/68/1 45/65/1
f 167/24/38 108/25/38 110/29/37 168/28/37
f 88/66/37 89/69/32 48/70/32 46/67/37
f 1/1/1 49/71/1 47/68/1
f 2/1/2 107/21/2 109/26/2
f 89/69/32 90/72/29 50/73/29 48/70/32
f 1/1/1 51/74/1 49/71/1
f 166/19/35 106/20/35 108/25/38 167/24/38
f 90/72/29 91/75/25 52/76/25 50/73/29
f 1/1/1 53/77/1 51/74/1
f 2/1/2 105/17/2 107/21/2
f 91/75/25 92/78/22 54/79/22 52/76/25
f 1/1/1 55/80/1 53/77/1
f 165/15/39 104/16/39 106/20/35 166/19/35
f 92/78/22 93/81/19 56/82/19 54/79/22
f 1/1/1 57/83/1 55/80/1
f 2/1/2 103/10/2 105/17/2
f 93/81/19 94/84/16 58/85/16 56/82/19
f 1/1/1 59/86/1 57/83/1
f 164/7/40 102/8/40 104/16/39 165/15/39
f 94/84/16 95/87/13 60/88/13 58/85/16
f 1/1/1 61/89/1 59/86/1
f 2/1/2 101/2/2 103/10/2
f 95/87/13 96/90/8 62/91/8 60/88/13
f 1/1/1 63/92/1 61/89/1
f 163/6/41 100/9/41 102/8/40 164/7/40
f 96/90/8 97/93/42 64/94/42 62/91/8
f 1/1/1 65/95/1 63/92/1
f 2/1/2 99/3/2 101/2/2
f 97/93/42 98/96/43 66/97/43 64/94/42
f 1/1/1 3/3/1 65/95/1
f 178/14/44 130/13/44 132/52/44 179/51/44
f 98/96/43 67/98/3 4/99/3 66/97/43
f 65/100/43 3/101/3 67/98/3 98/96/43
f 63/102/42 65/100/43 98/96/43 97/93/42
f 61/103/8 63/102/42 97/93/42 96/90/8
f 59/104/13 61/103/8 96/90/8 95/87/13
f 57/105/16 59/104/13 95/87/13 94/84/16
f 55/106/19 57/105/16 94/84/16 93/81/19
f 53/107/22 55/106/19 93/81/19 92/78/22
f 51/108/25 53/107/22 92/78/22 91/75/25
f 49/109/29 51/108/25 91/75/25 90/72/29
f 47/110/32 49/109/29 90/72/29 89/69/32
f 45/111/37 47/110/32 89/69/32 88/66/37
f 43/112/38 45/111/37 88/66/37 87/63/38
f 41/113/35 43/112/38 87/63/38 86/60/35
f 39/114/39 41/113/35 86/60/35 85/57/34
f 37/115/40 39/114/39 85/57/34 84/54/40
f 35/116/41 37/115/40 84/54/40 83/51/41
f 33/117/45 35/116/41 83/51/41 82/14/45
f 31/118/46 33/117/45 82/14/45 81/11/26
f 29/119/24 31/118/46 81/11/26 80/22/24
f 27/120/23 29/119/24 80/22/24 79/31/23
f 25/121/21 27/120/23 79/31/23 78/40/21
f 23/122/20 25/121/21 78/40/21 77/49/20
f 21/123/18 23/122/20 77/49/20 76/46/18
f 19/124/17 21/123/18 76/46/18 75/42/17
f 17/125/15 19/124/17 75/42/17 74/37/15
f 15/126/14 17/125/15 74/37/15 73/33/14
f 13/127/12 15/126/14 73/33/14 72/28/12
f 11/128/11 13/127/12 72/28/12 71/24/11
f 9/129/7 11/128/11 71/24/11 70/19/7
f 7/130/6 9/129/7 70/19/7 69/15/6
f 5/131/4 7/130/6 69/15/6 68/7/4
f 3/132/3 5/131/4 68/7/4 67/6/3
f 2/1/2 131/5/2 133/53/2
f 179/51/47 132/52/47 134/55/47 180/54/47
f 2/1/2 133/53/2 135/56/2
f 180/54/48 134/55/48 136/58/48 181/57/48
f 2/1/2 135/56/2 137/59/2
f 181/57/49 136/58/50 138/61/7 182/60/7
f 2/1/2 137/59/2 139/62/2
f 182/60/7 138/61/7 140/64/11 183/63/11
f 2/1/2 139/62/2 141/65/2
f 183/63/11 140/64/11 142/67/12 184/66/12
f 2/1/2 141/65/2 143/68/2
f 184/66/12 142/67/12 144/70/14 185/69/14
f 2/1/2 143/68/2 145/71/2
f 185/69/14 144/70/14 146/73/15 186/72/15
f 2/1/2 145/71/2 147/74/2
f 186/72/15 146/73/15 148/76/17 187/75/17
f 2/1/2 147/74/2 149/77/2
f 187/75/17 148/76/17 150/79/18 188/78/18
f 2/1/2 149/77/2 151/80/2
f 188/78/18 150/79/18 152/82/20 189/81/20
f 2/1/2 151/80/2 153/83/2
f 189/81/20 152/82/20 154/85/21 190/84/21
f 2/1/2 153/83/2 155/86/2
f 190/84/21 154/85/21 156/88/23 191/87/23
f 2/1/2 155/86/2 157/89/2
f 191/87/23 156/88/23 158/91/24 192/90/24
f 2/1/2 157/89/2 159/92/2
f 192/90/24 158/91/24 160/94/46 193/93/46
f 2/1/2 159/92/2 161/95/2
f 193/93/46 160/94/46 162/97/45 194/96/45
f 2/1/2 161/95/2 99/3/2
f 194/96/45 162/97/45 100/99/41 163/98/41
f 161/100/45 194/96/45 163/98/41 99/101/41
f 159/102/46 193/93/46 194/96/45 161/100/45
f 157/103/24 192/90/24 193/93/46 159/102/46
f 155/104/23 191/87/23 192/90/24 157/103/24
f 153/105/21 190/84/21 191/87/23 155/104/23
f 151/106/20 189/81/20 190/84/21 153/105/21
f 149/107/18 188/78/18 189/81/20 151/106/20
f 147/108/17 187/75/17 188/78/18 149/107/18
f 145/109/15 186/72/15 187/75/17 147/108/17
f 143/110/14 185/69/14 186/72/15 145/109/15
f 141/111/12 184/66/12 185/69/14 143/110/14
f 139/112/11 183/63/11 184/66/12 141/111/12
f 137/113/7 182/60/7 183/63/11 139/112/11
f 135/114/6 181/57/49 182/60/7 137/113/7
f 133/115/4 180/54/4 181/57/49 135/114/6
f 131/116/3 179/51/3 180/54/4 133/115/4
f 129/117/43 178/14/43 179/51/3 131/116/3
f 127/118/42 177/11/10 178/14/43 129/117/43
f 125/119/8 176/22/8 177/11/10 127/118/42
f 123/120/13 175/31/13 176/22/8 125/119/8
f 121/121/16 174/40/16 175/31/13 123/120/13
f 119/122/19 173/49/19 174/40/16 121/121/16
f 117/123/22 172/46/22 173/49/19 119/122/19
f 115/124/25 171/42/25 172/46/22 117/123/22
f 113/125/29 170/37/29 171/42/25 115/124/25
f 111/126/32 169/33/32 170/37/29 113/125/29
f 109/127/37 168/28/37 169/33/32 111/126/32
f 107/128/38 167/24/38 168/28/37 109/127/37
f 105/129/35 166/19/35 167/24/38 107/128/38
f 103/130/39 165/15/39 166/19/35 105/129/35
f 101/131/40 164/7/40 165/15/39 103/130/39
f 99/132/41 163/6/41 164/7/40 101/131/40
f 60/88/51 62/91/52 158/91/53 156/88/54
f 44/64/55 46/67/56 142/67/57 140/64/58
f 28/32/59 30/23/60 126/23/61 124/32/62
f 12/25/63 14/29/64 110/29/65 108/25/66
f 50/73/67 52/76/68 148/76/69 146/73/70
f 34/13/71 36/52/71 132/52/71 130/13/71
f 18/38/72 20/43/73 116/43/74 114/38/75
f 56/82/76 58/85/77 154/85/78 152/82/79
f 40/58/80 42/61/81 138/61/82 136/58/80
f 24/50/83 26/41/84 122/41/85 120/50/86
f 8/16/87 10/20/88 106/20/89 104/16/90
f 62/91/52 64/94/91 160/94/92 158/91/53
f 46/67/56 48/70/93 144/70/94 142/67/57
f 30/23/60 32/12/95 128/12/95 126/23/61
f 14/29/64 16/34/96 112/34/97 110/29/65
f 4/9/98 6/8/99 102/8/100 100/9/98
f 52/76/68 54/79/101 150/79/102 148/76/69
f 36/52/103 38/55/103 134/55/103 132/52/103
f 20/43/73 22/47/104 118/47/105 116/43/74
f 58/85/77 60/88/51 156/88/54 154/85/78
f 42/61/81 44/64/55 140/64/58 138/61/82
f 26/41/84 28/32/59 124/32/62 122/41/85
f 10/20/88 12/25/63 108/25/66 106/20/89
f 64/94/91 66/97/106 162/97/107 160/94/92
f 48/70/93 50/73/67 146/73/70 144/70/94
f 32/12/108 34/13/108 130/13/108 128/12/108
f 16/34/96 18/38/72 114/38/75 112/34/97
f 54/79/101 56/82/76 152/82/79 150/79/102
f 38/55/109 40/58/109 136/58/109 134/55/109
f 22/47/104 24/50/83 120/50/86 118/47/105
f 6/8/99 8/16/87 104/16/90 102/8/100
f 66/97/106 4/99/98 100/99/98 162/97/107
f 195/1/2 197/3/110 199/2/111
f 196/1/1 325/5/112 323/4/113
f 261/6/114 198/9/115 200/8/116 262/7/117
f 195/1/2 199/2/111 201/10/118
f 371/11/119 372/14/119 324/13/119 322/12/119
f 262/7/117 200/8/116 202/16/120 263/15/121
f 195/1/2 201/10/118 203/17/122
f 196/1/1 323/4/113 321/18/123
f 263/15/121 202/16/120 204/20/124 264/19/125
f 195/1/2 203/17/122 205/21/126
f 370/22/127 371/11/128 322/12/129 320/23/130
f 264/19/125 204/20/124 206/25/131 265/24/132
f 195/1/2 205/21/126 207/26/133
f 196/1/1 321/18/123 319/27/134
f 265/24/132 206/25/131 208/29/135 266/28/136
f 195/1/2 207/26/133 209/30/137
f 369/31/138 370/22/127 320/23/130 318/32/139
f 266/28/136 208/29/135 210/34/140 267/33/141
f 195/1/2 209/30/137 211/35/142
f 196/1/1 319/27/134 317/36/143
f 267/33/141 210/34/140 212/38/144 268/37/145
f 195/1/2 211/35/142 213/39/146
f 368/40/147 369/31/138 318/32/139 316/41/148
f 268/37/145 212/38/144 214/43/149 269/42/150
f 195/1/2 213/39/146 215/44/151
f 196/1/1 317/36/143 315/45/152
f 269/42/150 214/43/149 216/47/153 270/46/154
f 195/1/2 215/44/151 217/48/155
f 367/49/156 368/40/147 316/41/148 314/50/157
f 270/46/154 216/47/153 218/50/158 271/49/159
f 195/1/2 217/48/155 219/45/160
f 196/1/1 315/45/152 313/48/161
f 271/49/159 218/50/158 220/41/162 272/40/163
f 195/1/2 219/45/160 221/36/164
f 366/46/165 367/49/156 314/50/157 312/47/166
f 272/40/163 220/41/162 222/32/167 273/31/168
f 195/1/2 221/36/164 223/27/169
f 196/1/1 313/48/161 311/44/170
f 273/31/168 222/32/167 224/23/171 274/22/172
f 195/1/2 223/27/169 225/18/173
f 365/42/174 366/46/165 312/47/166 310/43/175
f 274/22/172 224/23/171 226/12/176 275/11/177
f 195/1/2 225/18/173 227/4/178
f 196/1/1 311/44/170 309/39/179
f 275/11/180 226/12/180 228/13/180 276/14/180
f 195/1/2 227/4/178 229/5/181
f 364/37/182 365/42/174 310/43/175 308/38/183
f 276/14/184 228/13/184 230/52/184 277/51/184
f 195/1/2 229/5/181 231/53/185
f 196/1/1 309/39/179 307/35/186
f 277/51/187 230/52/187 232/55/187 278/54/187
f 195/1/2 231/53/185 233/56/188
f 363/33/189 364/37/182 308/38/183 306/34/190
f 278/54/191 232/55/191 234/58/191 279/57/191
f 195/1/2 233/56/188 235/59/192
f 196/1/1 307/35/186 305/30/193
f 279/57/194 234/58/195 236/61/196 280/60/197
f 195/1/2 235/59/192 237/62/198
f 362/28/199 363/33/189 306/34/190 304/29/200
f 280/60/197 236/61/196 238/64/201 281/63/202
f 195/1/2 237/62/198 239/65/203
f 196/1/1 305/30/193 303/26/204
f 281/63/202 238/64/201 240/67/205 282/66/206
f 195/1/2 239/65/203 241/68/207
f 361/24/208 362/28/199 304/29/200 302/25/209
f 282/66/206 240/67/205 242/70/210 283/69/211
f 195/1/2 241/68/207 243/71/212
f 196/1/1 303/26/204 301/21/213
f 283/69/211 242/70/210 244/73/214 284/72/215
f 195/1/2 243/71/212 245/74/216
f 360/19/217 361/24/208 302/25/209 300/20/218
f 284/72/215 244/73/214 246/76/219 285/75/220
f 195/1/2 245/74/216 247/77/221
f 196/1/1 301/21/213 299/17/222
f 285/75/220 246/76/219 248/79/223 286/78/224
f 195/1/2 247/77/221 249/80/225
f 359/15/226 360/19/217 300/20/218 298/16/227
f 286/78/224 248/79/223 250/82/228 287/81/229
f 195/1/2 249/80/225 251/83/230
f 196/1/1 299/17/222 297/10/231
f 287/81/229 250/82/228 252/85/232 288/84/233
f 195/1/2 251/83/230 253/86/234
f 358/7/235 359/15/226 298/16/227 296/8/236
f 288/84/233 252/85/232 254/88/237 289/87/238
f 195/1/2 253/86/234 255/89/239
f 196/1/1 297/10/231 295/2/240
f 289/87/238 254/88/237 256/91/241 290/90/242
f 195/1/2 255/89/239 257/92/243
f 357/6/244 358/7/235 296/8/236 294/9/245
f 290/90/242 256/91/241 258/94/246 291/93/247
f 195/1/2 257/92/243 259/95/248
f 196/1/1 295/2/240 293/3/249
f 291/93/247 258/94/246 260/97/250 292/96/251
f 195/1/2 259/95/248 197/3/110
f 372/14/252 373/51/252 326/52/252 324/13/252
f 292/96/251 260/97/250 198/99/115 261/98/114
f 259/100/253 292/96/251 261/98/114 197/101/254
f 257/102/255 291/93/247 292/96/251 259/100/253
f 255/103/256 290/90/242 291/93/247 257/102/255
f 253/104/257 289/87/238 290/90/242 255/103/256
f 251/105/258 288/84/233 289/87/238 253/104/257
f 249/106/259 287/81/229 288/84/233 251/105/258
f 247/107/260 286/78/224 287/81/229 249/106/259
f 245/108/261 285/75/220 286/78/224 247/107/260
f 243/109/262 284/72/215 285/75/220 245/108/261
f 241/110/263 283/69/211 284/72/215 243/109/262
f 239/111/264 282/66/206 283/69/211 241/110/263
f 237/112/265 281/63/202 282/66/206 239/111/264
f 235/113/266 280/60/197 281/63/202 237/112/265
f 233/114/267 279/57/194 280/60/197 235/113/266
f 231/115/268 278/54/269 279/57/194 233/114/267
f 229/116/270 277/51/270 278/54/269 231/115/268
f 227/117/271 276/14/272 277/51/270 229/116/270
f 225/118/273 275/11/177 276/14/272 227/117/271
f 223/119/274 274/22/172 275/11/177 225/118/273
f 221/120/275 273/31/168 274/22/172 223/119/274
f 219/121/276 272/40/163 273/31/168 221/120/275
f 217/122/277 271/49/159 272/40/163 219/121/276
f 215/123/278 270/46/154 271/49/159 217/122/277
f 213/124/279 269/42/150 270/46/154 215/123/278
f 211/125/280 268/37/145 269/42/150 213/124/279
f 209/126/281 267/33/141 268/37/145 211/125/280
f 207/127/282 266/28/136 267/33/141 209/126/281
f 205/128/283 265/24/132 266/28/136 207/127/282
f 203/129/284 264/19/125 265/24/132 205/128/283
f 201/130/285 263/15/121 264/19/125 203/129/284
f 199/131/286 262/7/117 263/15/121 201/130/285
f 197/132/254 261/6/114 262/7/117 199/131/286
f 196/1/1 327/53/287 325/5/112
f 373/51/288 374/54/288 328/55/288 326/52/288
f 196/1/1 329/56/289 327/53/287
f 374/54/290 375/57/290 330/58/290 328/55/290
f 196/1/1 331/59/291 329/56/289
f 375/57/292 376/60/293 332/61/294 330/58/295
f 196/1/1 333/62/296 331/59/291
f 376/60/293 377/63/297 334/64/298 332/61/294
f 196/1/1 335/65/299 333/62/296
f 377/63/297 378/66/300 336/67/301 334/64/298
f 196/1/1 337/68/302 335/65/299
f 378/66/300 379/69/303 338/70/304 336/67/301
f 196/1/1 339/71/305 337/68/302
f 379/69/303 380/72/306 340/73/307 338/70/304
f 196/1/1 341/74/308 339/71/305
f 380/72/306 381/75/309 342/76/310 340/73/307
f 196/1/1 343/77/311 341/74/308
f 381/75/309 382/78/312 344/79/313 342/76/310
f 196/1/1 345/80/314 343/77/311
f 382/78/312 383/81/315 346/82/316 344/79/313
f 196/1/1 347/83/317 345/80/314
f 383/81/315 384/84/318 348/85/319 346/82/316
f 196/1/1 349/86/320 347/83/317
f 384/84/318 385/87/321 350/88/322 348/85/319
f 196/1/1 351/89/323 349/86/320
f 385/87/321 386/90/324 352/91/325 350/88/322
f 196/1/1 353/92/326 351/89/323
f 386/90/324 387/93/327 354/94/328 352/91/325
f 196/1/1 355/95/329 353/92/326
f 387/93/327 388/96/330 356/97/331 354/94/328
f 196/1/1 293/3/249 355/95/329
f 388/96/330 357/98/244 294/99/245 356/97/331
f 355/100/332 293/101/333 357/98/244 388/96/330
f 353/102/334 355/100/332 388/96/330 387/93/327
f 351/103/274 353/102/334 387/93/327 386/90/324
f 349/104/275 351/103/274 386/90/324 385/87/321
f 347/105/276 349/104/275 385/87/321 384/84/318
f 345/106/277 347/105/276 384/84/318 383/81/315
f 343/107/278 345/106/277 383/81/315 382/78/312
f 341/108/279 343/107/278 382/78/312 381/75/309
f 339/109/280 341/108/279 381/75/309 380/72/306
f 337/110/281 339/109/280 380/72/306 379/69/303
f 335/111/282 337/110/281 379/69/303 378/66/300
f 333/112/283 335/111/282 378/66/300 377/63/297
f 331/113/335 333/112/283 377/63/297 376/60/293
f 329/114/336 331/113/335 376/60/293 375/57/292
f 327/115/337 329/114/336 375/57/292 374/54/338
f 325/116/339 327/115/337 374/54/338 373/51/339
f 323/117/340 325/116/339 373/51/339 372/14/341
f 321/118/342 323/117/340 372/14/341 371/11/128
f 319/119/343 321/118/342 371/11/128 370/22/127
f 317/120/257 319/119/343 370/22/127 369/31/138
f 315/121/258 317/120/257 369/31/138 368/40/147
f 313/122/259 315/121/258 368/40/147 367/49/156
f 311/123/260 313/122/259 367/49/156 366/46/165
f 309/124/261 311/123/260 366/46/165 365/42/174
f 307/125/262 309/124/261 365/42/174 364/37/182
f 305/126/263 307/125/262 364/37/182 363/33/189
f 303/127/264 305/126/263 363/33/189 362/28/199
f 301/128/265 303/127/264 362/28/199 361/24/208
f 299/129/266 301/128/265 361/24/208 360/19/217
f 297/130/344 299/129/266 360/19/217 359/15/226
f 295/131/345 297/130/344 359/15/226 358/7/235
f 293/132/333 295/131/345 358/7/235 357/6/244
f 254/88/346 350/88/347 352/91/348 256/91/349
f 238/64/350 334/64/351 336/67/352 240/67/353
f 222/32/354 318/32/355 320/23/356 224/23/357
f 206/25/358 302/25/359 304/29/360 208/29/361
f 244/73/362 340/73/363 342/76/364 246/76/365
f 228/13/366 324/13/367 326/52/368 230/52/368
f 212/38/369 308/38/370 310/43/371 214/43/372
f 250/82/373 346/82/374 348/85/375 252/85/376
f 234/58/377 330/58/377 332/61/378 236/61/379
f 218/50/380 314/50/381 316/41/382 220/41/383
f 202/16/384 298/16/385 300/20/386 204/20/387
f 256/91/349 352/91/348 354/94/388 258/94/389
f 240/67/353 336/67/352 338/70/390 242/70/391
f 224/23/357 320/23/356 322/12/392 226/12/392
f 208/29/361 304/29/360 306/34/393 210/34/394
f 198/9/395 294/9/395 296/8/396 200/8/396
f 246/76/365 342/76/364 344/79/397 248/79/398
f 230/52/399 326/52/399 328/55/400 232/55/401
f 214/43/372 310/43/371 312/47/402 216/47/403
f 252/85/376 348/85/375 350/88/347 254/88/346
f 236/61/379 332/61/378 334/64/351 238/64/350
f 220/41/383 316/41/382 318/32/355 222/32/354
f 204/20/387 300/20/386 302/25/359 206/25/358
f 258/94/389 354/94/388 356/97/404 260/97/404
f 242/70/391 338/70/390 340/73/363 244/73/362
f 226/12/405 322/12/405 324/13/367 228/13/366
f 210/34/394 306/34/393 308/38/370 212/38/369
f 248/79/398 344/79/397 346/82/374 250/82/373
f 232/55/401 328/55/400 330/58/406 234/58/406
f 216/47/403 312/47/402 314/50/381 218/50/380
f 200/8/396 296/8/396 298/16/385 202/16/384
f 260/97/404 356/97/404 294/99/395 198/99/395
